<mxfile host="Electron" agent="Mozilla/5.0 (Windows NT 10.0; Win64; x64) AppleWebKit/537.36 (KHTML, like Gecko) draw.io/21.2.1 Chrome/112.0.5615.87 Electron/24.1.2 Safari/537.36" modified="2024-10-21T17:39:28.246Z" version="21.2.1" etag="tpTvdd4D6ja8UgtDlxka" type="device">
  <diagram name="Página-1" id="I3HxCtyu9hDzIKTsM6g5">
    <mxGraphModel dx="3400" dy="1730" grid="1" gridSize="10" guides="1" tooltips="1" connect="1" arrows="1" fold="1" page="0" pageScale="1" pageWidth="827" pageHeight="1169" math="0" shadow="0">
      <root>
        <mxCell id="0" />
        <mxCell id="1" parent="0" />
        <mxCell id="dUvJ7xnpU8N0W4q3UFqf-81" value="Productos_Comprados" style="rounded=0;whiteSpace=wrap;html=1;fillColor=#ffe6cc;strokeColor=#d79b00;" parent="1" vertex="1">
          <mxGeometry x="-380" y="840" width="120" height="60" as="geometry" />
        </mxCell>
        <mxCell id="dUvJ7xnpU8N0W4q3UFqf-89" style="edgeStyle=orthogonalEdgeStyle;rounded=0;orthogonalLoop=1;jettySize=auto;html=1;exitX=0.5;exitY=1;exitDx=0;exitDy=0;entryX=0.75;entryY=0;entryDx=0;entryDy=0;" parent="1" source="dUvJ7xnpU8N0W4q3UFqf-82" target="dUvJ7xnpU8N0W4q3UFqf-81" edge="1">
          <mxGeometry relative="1" as="geometry" />
        </mxCell>
        <mxCell id="dUvJ7xnpU8N0W4q3UFqf-82" value="Nombre_Producto" style="ellipse;whiteSpace=wrap;html=1;" parent="1" vertex="1">
          <mxGeometry x="-220" y="720" width="120" height="80" as="geometry" />
        </mxCell>
        <mxCell id="dUvJ7xnpU8N0W4q3UFqf-83" value="Productos_Comprados&lt;br&gt;ID" style="ellipse;whiteSpace=wrap;html=1;" parent="1" vertex="1">
          <mxGeometry x="-440" y="680" width="120" height="80" as="geometry" />
        </mxCell>
        <mxCell id="dUvJ7xnpU8N0W4q3UFqf-84" value="Precio" style="ellipse;whiteSpace=wrap;html=1;" parent="1" vertex="1">
          <mxGeometry x="-260" y="1030" width="120" height="80" as="geometry" />
        </mxCell>
        <mxCell id="dUvJ7xnpU8N0W4q3UFqf-87" style="edgeStyle=orthogonalEdgeStyle;rounded=0;orthogonalLoop=1;jettySize=auto;html=1;exitX=0.5;exitY=0;exitDx=0;exitDy=0;entryX=0.665;entryY=1.058;entryDx=0;entryDy=0;entryPerimeter=0;" parent="1" source="dUvJ7xnpU8N0W4q3UFqf-84" target="dUvJ7xnpU8N0W4q3UFqf-81" edge="1">
          <mxGeometry relative="1" as="geometry">
            <Array as="points">
              <mxPoint x="-195" y="980" />
              <mxPoint x="-300" y="980" />
            </Array>
          </mxGeometry>
        </mxCell>
        <mxCell id="dUvJ7xnpU8N0W4q3UFqf-88" style="edgeStyle=orthogonalEdgeStyle;rounded=0;orthogonalLoop=1;jettySize=auto;html=1;exitX=0.5;exitY=1;exitDx=0;exitDy=0;entryX=0.367;entryY=0.005;entryDx=0;entryDy=0;entryPerimeter=0;" parent="1" source="dUvJ7xnpU8N0W4q3UFqf-83" target="dUvJ7xnpU8N0W4q3UFqf-81" edge="1">
          <mxGeometry relative="1" as="geometry" />
        </mxCell>
        <mxCell id="dUvJ7xnpU8N0W4q3UFqf-163" style="edgeStyle=orthogonalEdgeStyle;rounded=0;orthogonalLoop=1;jettySize=auto;html=1;exitX=0;exitY=0.5;exitDx=0;exitDy=0;entryX=1;entryY=0.5;entryDx=0;entryDy=0;" parent="1" source="dUvJ7xnpU8N0W4q3UFqf-91" target="dUvJ7xnpU8N0W4q3UFqf-160" edge="1">
          <mxGeometry relative="1" as="geometry" />
        </mxCell>
        <mxCell id="dUvJ7xnpU8N0W4q3UFqf-91" value="Helado" style="rounded=0;whiteSpace=wrap;html=1;fillColor=#ffe6cc;strokeColor=#d79b00;" parent="1" vertex="1">
          <mxGeometry x="120" y="840" width="120" height="60" as="geometry" />
        </mxCell>
        <mxCell id="dUvJ7xnpU8N0W4q3UFqf-92" value="HeladoID" style="ellipse;whiteSpace=wrap;html=1;" parent="1" vertex="1">
          <mxGeometry x="190" y="720" width="120" height="80" as="geometry" />
        </mxCell>
        <mxCell id="dUvJ7xnpU8N0W4q3UFqf-104" style="edgeStyle=orthogonalEdgeStyle;rounded=0;orthogonalLoop=1;jettySize=auto;html=1;exitX=0.5;exitY=0;exitDx=0;exitDy=0;entryX=0.5;entryY=1;entryDx=0;entryDy=0;" parent="1" source="dUvJ7xnpU8N0W4q3UFqf-93" target="dUvJ7xnpU8N0W4q3UFqf-91" edge="1">
          <mxGeometry relative="1" as="geometry" />
        </mxCell>
        <mxCell id="dUvJ7xnpU8N0W4q3UFqf-93" value="Kilo" style="ellipse;whiteSpace=wrap;html=1;" parent="1" vertex="1">
          <mxGeometry x="120" y="970" width="120" height="80" as="geometry" />
        </mxCell>
        <mxCell id="dUvJ7xnpU8N0W4q3UFqf-102" style="edgeStyle=orthogonalEdgeStyle;rounded=0;orthogonalLoop=1;jettySize=auto;html=1;exitX=0.5;exitY=1;exitDx=0;exitDy=0;entryX=0.25;entryY=0;entryDx=0;entryDy=0;" parent="1" source="dUvJ7xnpU8N0W4q3UFqf-94" target="dUvJ7xnpU8N0W4q3UFqf-91" edge="1">
          <mxGeometry relative="1" as="geometry" />
        </mxCell>
        <mxCell id="dUvJ7xnpU8N0W4q3UFqf-94" value="Sabor_Helado" style="ellipse;whiteSpace=wrap;html=1;" parent="1" vertex="1">
          <mxGeometry x="40" y="720" width="120" height="80" as="geometry" />
        </mxCell>
        <mxCell id="dUvJ7xnpU8N0W4q3UFqf-103" style="edgeStyle=orthogonalEdgeStyle;rounded=0;orthogonalLoop=1;jettySize=auto;html=1;exitX=0.5;exitY=1;exitDx=0;exitDy=0;entryX=0.632;entryY=-0.006;entryDx=0;entryDy=0;entryPerimeter=0;" parent="1" source="dUvJ7xnpU8N0W4q3UFqf-92" target="dUvJ7xnpU8N0W4q3UFqf-91" edge="1">
          <mxGeometry relative="1" as="geometry" />
        </mxCell>
        <mxCell id="dUvJ7xnpU8N0W4q3UFqf-161" style="edgeStyle=orthogonalEdgeStyle;rounded=0;orthogonalLoop=1;jettySize=auto;html=1;exitX=1;exitY=0.5;exitDx=0;exitDy=0;entryX=0;entryY=0.5;entryDx=0;entryDy=0;" parent="1" source="dUvJ7xnpU8N0W4q3UFqf-105" target="dUvJ7xnpU8N0W4q3UFqf-159" edge="1">
          <mxGeometry relative="1" as="geometry" />
        </mxCell>
        <mxCell id="dUvJ7xnpU8N0W4q3UFqf-105" value="Batido" style="rounded=0;whiteSpace=wrap;html=1;fillColor=#ffe6cc;strokeColor=#d79b00;" parent="1" vertex="1">
          <mxGeometry x="-900" y="840" width="120" height="60" as="geometry" />
        </mxCell>
        <mxCell id="sls0JJjholh__sMR9oss-5" style="edgeStyle=orthogonalEdgeStyle;rounded=0;orthogonalLoop=1;jettySize=auto;html=1;exitX=0.5;exitY=1;exitDx=0;exitDy=0;entryX=0.602;entryY=0.005;entryDx=0;entryDy=0;entryPerimeter=0;" edge="1" parent="1" source="dUvJ7xnpU8N0W4q3UFqf-106" target="dUvJ7xnpU8N0W4q3UFqf-105">
          <mxGeometry relative="1" as="geometry" />
        </mxCell>
        <mxCell id="dUvJ7xnpU8N0W4q3UFqf-106" value="BatidoID" style="ellipse;whiteSpace=wrap;html=1;" parent="1" vertex="1">
          <mxGeometry x="-880" y="700" width="120" height="80" as="geometry" />
        </mxCell>
        <mxCell id="sls0JJjholh__sMR9oss-6" style="edgeStyle=orthogonalEdgeStyle;rounded=0;orthogonalLoop=1;jettySize=auto;html=1;exitX=1;exitY=0;exitDx=0;exitDy=0;entryX=0;entryY=0.5;entryDx=0;entryDy=0;" edge="1" parent="1" source="dUvJ7xnpU8N0W4q3UFqf-107" target="dUvJ7xnpU8N0W4q3UFqf-105">
          <mxGeometry relative="1" as="geometry" />
        </mxCell>
        <mxCell id="dUvJ7xnpU8N0W4q3UFqf-107" value="Tamaño_Batido" style="ellipse;whiteSpace=wrap;html=1;" parent="1" vertex="1">
          <mxGeometry x="-1050" y="870" width="120" height="80" as="geometry" />
        </mxCell>
        <mxCell id="sls0JJjholh__sMR9oss-4" style="edgeStyle=orthogonalEdgeStyle;rounded=0;orthogonalLoop=1;jettySize=auto;html=1;exitX=1;exitY=1;exitDx=0;exitDy=0;entryX=0.25;entryY=0;entryDx=0;entryDy=0;" edge="1" parent="1" source="dUvJ7xnpU8N0W4q3UFqf-109" target="dUvJ7xnpU8N0W4q3UFqf-105">
          <mxGeometry relative="1" as="geometry" />
        </mxCell>
        <mxCell id="dUvJ7xnpU8N0W4q3UFqf-109" value="Sabor_Batido" style="ellipse;whiteSpace=wrap;html=1;" parent="1" vertex="1">
          <mxGeometry x="-1050" y="730" width="120" height="80" as="geometry" />
        </mxCell>
        <mxCell id="dUvJ7xnpU8N0W4q3UFqf-165" style="edgeStyle=orthogonalEdgeStyle;rounded=0;orthogonalLoop=1;jettySize=auto;html=1;exitX=0.5;exitY=0;exitDx=0;exitDy=0;entryX=0.5;entryY=1;entryDx=0;entryDy=0;" parent="1" source="dUvJ7xnpU8N0W4q3UFqf-110" target="dUvJ7xnpU8N0W4q3UFqf-158" edge="1">
          <mxGeometry relative="1" as="geometry" />
        </mxCell>
        <mxCell id="dUvJ7xnpU8N0W4q3UFqf-110" value="Pizza" style="rounded=0;whiteSpace=wrap;html=1;fillColor=#ffe6cc;strokeColor=#d79b00;" parent="1" vertex="1">
          <mxGeometry x="-375" y="1160" width="120" height="60" as="geometry" />
        </mxCell>
        <mxCell id="dUvJ7xnpU8N0W4q3UFqf-115" style="edgeStyle=orthogonalEdgeStyle;rounded=0;orthogonalLoop=1;jettySize=auto;html=1;exitX=0;exitY=0.5;exitDx=0;exitDy=0;entryX=1;entryY=0.5;entryDx=0;entryDy=0;" parent="1" source="dUvJ7xnpU8N0W4q3UFqf-111" target="dUvJ7xnpU8N0W4q3UFqf-110" edge="1">
          <mxGeometry relative="1" as="geometry" />
        </mxCell>
        <mxCell id="dUvJ7xnpU8N0W4q3UFqf-111" value="PizzaID" style="ellipse;whiteSpace=wrap;html=1;" parent="1" vertex="1">
          <mxGeometry x="-205" y="1150" width="120" height="80" as="geometry" />
        </mxCell>
        <mxCell id="dUvJ7xnpU8N0W4q3UFqf-114" style="edgeStyle=orthogonalEdgeStyle;rounded=0;orthogonalLoop=1;jettySize=auto;html=1;exitX=1;exitY=0.5;exitDx=0;exitDy=0;entryX=0;entryY=0.5;entryDx=0;entryDy=0;" parent="1" source="dUvJ7xnpU8N0W4q3UFqf-112" target="dUvJ7xnpU8N0W4q3UFqf-110" edge="1">
          <mxGeometry relative="1" as="geometry" />
        </mxCell>
        <mxCell id="dUvJ7xnpU8N0W4q3UFqf-112" value="Tamaño_Pizza" style="ellipse;whiteSpace=wrap;html=1;" parent="1" vertex="1">
          <mxGeometry x="-555" y="1150" width="120" height="80" as="geometry" />
        </mxCell>
        <mxCell id="dUvJ7xnpU8N0W4q3UFqf-116" style="edgeStyle=orthogonalEdgeStyle;rounded=0;orthogonalLoop=1;jettySize=auto;html=1;exitX=0.5;exitY=0;exitDx=0;exitDy=0;entryX=0.5;entryY=1;entryDx=0;entryDy=0;" parent="1" source="dUvJ7xnpU8N0W4q3UFqf-113" target="dUvJ7xnpU8N0W4q3UFqf-110" edge="1">
          <mxGeometry relative="1" as="geometry" />
        </mxCell>
        <mxCell id="dUvJ7xnpU8N0W4q3UFqf-113" value="Nombre_Pizza" style="ellipse;whiteSpace=wrap;html=1;" parent="1" vertex="1">
          <mxGeometry x="-375" y="1280" width="120" height="80" as="geometry" />
        </mxCell>
        <mxCell id="dUvJ7xnpU8N0W4q3UFqf-156" style="edgeStyle=orthogonalEdgeStyle;rounded=0;orthogonalLoop=1;jettySize=auto;html=1;exitX=0.5;exitY=1;exitDx=0;exitDy=0;" parent="1" source="dUvJ7xnpU8N0W4q3UFqf-117" target="dUvJ7xnpU8N0W4q3UFqf-149" edge="1">
          <mxGeometry relative="1" as="geometry" />
        </mxCell>
        <mxCell id="sls0JJjholh__sMR9oss-10" style="edgeStyle=orthogonalEdgeStyle;rounded=0;orthogonalLoop=1;jettySize=auto;html=1;exitX=0.5;exitY=0;exitDx=0;exitDy=0;entryX=0.5;entryY=1;entryDx=0;entryDy=0;" edge="1" parent="1" source="dUvJ7xnpU8N0W4q3UFqf-117" target="dUvJ7xnpU8N0W4q3UFqf-182">
          <mxGeometry relative="1" as="geometry" />
        </mxCell>
        <mxCell id="dUvJ7xnpU8N0W4q3UFqf-117" value="Venta" style="rounded=0;whiteSpace=wrap;html=1;fillColor=#ffe6cc;strokeColor=#d79b00;" parent="1" vertex="1">
          <mxGeometry x="-335" y="450" width="120" height="60" as="geometry" />
        </mxCell>
        <mxCell id="dUvJ7xnpU8N0W4q3UFqf-118" value="VentaID" style="ellipse;whiteSpace=wrap;html=1;" parent="1" vertex="1">
          <mxGeometry x="-70" y="420" width="120" height="80" as="geometry" />
        </mxCell>
        <mxCell id="dUvJ7xnpU8N0W4q3UFqf-119" value="Fecha_venta" style="ellipse;whiteSpace=wrap;html=1;" parent="1" vertex="1">
          <mxGeometry x="-555" y="350" width="120" height="80" as="geometry" />
        </mxCell>
        <mxCell id="dUvJ7xnpU8N0W4q3UFqf-127" style="edgeStyle=orthogonalEdgeStyle;rounded=0;orthogonalLoop=1;jettySize=auto;html=1;entryX=0.914;entryY=1.071;entryDx=0;entryDy=0;entryPerimeter=0;" parent="1" source="dUvJ7xnpU8N0W4q3UFqf-120" target="dUvJ7xnpU8N0W4q3UFqf-117" edge="1">
          <mxGeometry relative="1" as="geometry">
            <mxPoint x="-390" y="600" as="sourcePoint" />
            <mxPoint x="-300" y="520" as="targetPoint" />
            <Array as="points">
              <mxPoint x="-30" y="550" />
              <mxPoint x="-225" y="550" />
            </Array>
          </mxGeometry>
        </mxCell>
        <mxCell id="dUvJ7xnpU8N0W4q3UFqf-120" value="Total" style="ellipse;whiteSpace=wrap;html=1;" parent="1" vertex="1">
          <mxGeometry x="-80" y="510" width="120" height="80" as="geometry" />
        </mxCell>
        <mxCell id="dUvJ7xnpU8N0W4q3UFqf-121" value="ClienteID" style="ellipse;whiteSpace=wrap;html=1;" parent="1" vertex="1">
          <mxGeometry x="-185" y="340" width="120" height="80" as="geometry" />
        </mxCell>
        <mxCell id="dUvJ7xnpU8N0W4q3UFqf-124" style="edgeStyle=orthogonalEdgeStyle;rounded=0;orthogonalLoop=1;jettySize=auto;html=1;exitX=1;exitY=0.5;exitDx=0;exitDy=0;entryX=0.004;entryY=0.164;entryDx=0;entryDy=0;entryPerimeter=0;" parent="1" source="dUvJ7xnpU8N0W4q3UFqf-119" target="dUvJ7xnpU8N0W4q3UFqf-117" edge="1">
          <mxGeometry relative="1" as="geometry" />
        </mxCell>
        <mxCell id="dUvJ7xnpU8N0W4q3UFqf-126" style="edgeStyle=orthogonalEdgeStyle;rounded=0;orthogonalLoop=1;jettySize=auto;html=1;exitX=0;exitY=0.5;exitDx=0;exitDy=0;entryX=1;entryY=0.5;entryDx=0;entryDy=0;" parent="1" source="dUvJ7xnpU8N0W4q3UFqf-121" target="dUvJ7xnpU8N0W4q3UFqf-117" edge="1">
          <mxGeometry relative="1" as="geometry" />
        </mxCell>
        <mxCell id="dUvJ7xnpU8N0W4q3UFqf-128" style="edgeStyle=orthogonalEdgeStyle;rounded=0;orthogonalLoop=1;jettySize=auto;html=1;exitX=0;exitY=0;exitDx=0;exitDy=0;entryX=1;entryY=0.75;entryDx=0;entryDy=0;" parent="1" source="dUvJ7xnpU8N0W4q3UFqf-118" target="dUvJ7xnpU8N0W4q3UFqf-117" edge="1">
          <mxGeometry relative="1" as="geometry" />
        </mxCell>
        <mxCell id="dUvJ7xnpU8N0W4q3UFqf-133" value="Pedir" style="rhombus;whiteSpace=wrap;html=1;" parent="1" vertex="1">
          <mxGeometry x="90" y="270" width="80" height="80" as="geometry" />
        </mxCell>
        <mxCell id="dUvJ7xnpU8N0W4q3UFqf-135" style="edgeStyle=orthogonalEdgeStyle;rounded=0;orthogonalLoop=1;jettySize=auto;html=1;entryX=0.644;entryY=0.029;entryDx=0;entryDy=0;entryPerimeter=0;" parent="1" source="dUvJ7xnpU8N0W4q3UFqf-133" target="dUvJ7xnpU8N0W4q3UFqf-117" edge="1">
          <mxGeometry relative="1" as="geometry" />
        </mxCell>
        <mxCell id="dUvJ7xnpU8N0W4q3UFqf-138" style="edgeStyle=orthogonalEdgeStyle;rounded=0;orthogonalLoop=1;jettySize=auto;html=1;entryX=0.5;entryY=0;entryDx=0;entryDy=0;" parent="1" source="dUvJ7xnpU8N0W4q3UFqf-139" target="dUvJ7xnpU8N0W4q3UFqf-133" edge="1">
          <mxGeometry relative="1" as="geometry">
            <mxPoint x="140" y="220" as="targetPoint" />
          </mxGeometry>
        </mxCell>
        <mxCell id="dUvJ7xnpU8N0W4q3UFqf-139" value="&lt;b&gt;Cliente&lt;/b&gt;" style="rounded=0;whiteSpace=wrap;html=1;fillColor=#ffe6cc;strokeColor=#d79b00;" parent="1" vertex="1">
          <mxGeometry x="80" y="90" width="120" height="60" as="geometry" />
        </mxCell>
        <mxCell id="dUvJ7xnpU8N0W4q3UFqf-140" style="edgeStyle=orthogonalEdgeStyle;rounded=0;orthogonalLoop=1;jettySize=auto;html=1;exitX=0.5;exitY=1;exitDx=0;exitDy=0;entryX=0.75;entryY=0;entryDx=0;entryDy=0;" parent="1" source="dUvJ7xnpU8N0W4q3UFqf-141" target="dUvJ7xnpU8N0W4q3UFqf-139" edge="1">
          <mxGeometry relative="1" as="geometry" />
        </mxCell>
        <mxCell id="dUvJ7xnpU8N0W4q3UFqf-141" value="Nombre" style="ellipse;whiteSpace=wrap;html=1;" parent="1" vertex="1">
          <mxGeometry x="200" y="-70" width="120" height="80" as="geometry" />
        </mxCell>
        <mxCell id="dUvJ7xnpU8N0W4q3UFqf-149" value="Tiene" style="rhombus;whiteSpace=wrap;html=1;" parent="1" vertex="1">
          <mxGeometry x="-320" y="620" width="80" height="80" as="geometry" />
        </mxCell>
        <mxCell id="dUvJ7xnpU8N0W4q3UFqf-152" style="edgeStyle=orthogonalEdgeStyle;rounded=0;orthogonalLoop=1;jettySize=auto;html=1;exitX=0;exitY=0.5;exitDx=0;exitDy=0;entryX=0.75;entryY=1;entryDx=0;entryDy=0;" parent="1" source="dUvJ7xnpU8N0W4q3UFqf-150" target="dUvJ7xnpU8N0W4q3UFqf-117" edge="1">
          <mxGeometry relative="1" as="geometry" />
        </mxCell>
        <mxCell id="dUvJ7xnpU8N0W4q3UFqf-150" value="Cantidad" style="ellipse;whiteSpace=wrap;html=1;" parent="1" vertex="1">
          <mxGeometry x="-190" y="570" width="120" height="80" as="geometry" />
        </mxCell>
        <mxCell id="dUvJ7xnpU8N0W4q3UFqf-151" value="Productos_Comprados&lt;br&gt;ID" style="ellipse;whiteSpace=wrap;html=1;" parent="1" vertex="1">
          <mxGeometry x="-485" y="560" width="120" height="80" as="geometry" />
        </mxCell>
        <mxCell id="dUvJ7xnpU8N0W4q3UFqf-153" style="edgeStyle=orthogonalEdgeStyle;rounded=0;orthogonalLoop=1;jettySize=auto;html=1;exitX=1;exitY=0;exitDx=0;exitDy=0;entryX=0.116;entryY=0.996;entryDx=0;entryDy=0;entryPerimeter=0;" parent="1" source="dUvJ7xnpU8N0W4q3UFqf-151" target="dUvJ7xnpU8N0W4q3UFqf-117" edge="1">
          <mxGeometry relative="1" as="geometry" />
        </mxCell>
        <mxCell id="dUvJ7xnpU8N0W4q3UFqf-157" style="edgeStyle=orthogonalEdgeStyle;rounded=0;orthogonalLoop=1;jettySize=auto;html=1;exitX=0.5;exitY=1;exitDx=0;exitDy=0;entryX=0.571;entryY=0.017;entryDx=0;entryDy=0;entryPerimeter=0;" parent="1" source="dUvJ7xnpU8N0W4q3UFqf-149" target="dUvJ7xnpU8N0W4q3UFqf-81" edge="1">
          <mxGeometry relative="1" as="geometry" />
        </mxCell>
        <mxCell id="dUvJ7xnpU8N0W4q3UFqf-166" style="edgeStyle=orthogonalEdgeStyle;rounded=0;orthogonalLoop=1;jettySize=auto;html=1;exitX=0.5;exitY=0;exitDx=0;exitDy=0;entryX=0.5;entryY=1;entryDx=0;entryDy=0;" parent="1" source="dUvJ7xnpU8N0W4q3UFqf-158" target="dUvJ7xnpU8N0W4q3UFqf-81" edge="1">
          <mxGeometry relative="1" as="geometry" />
        </mxCell>
        <mxCell id="dUvJ7xnpU8N0W4q3UFqf-158" value="Seleccionar" style="rhombus;whiteSpace=wrap;html=1;" parent="1" vertex="1">
          <mxGeometry x="-355" y="1010" width="80" height="80" as="geometry" />
        </mxCell>
        <mxCell id="dUvJ7xnpU8N0W4q3UFqf-162" style="edgeStyle=orthogonalEdgeStyle;rounded=0;orthogonalLoop=1;jettySize=auto;html=1;exitX=1;exitY=0.5;exitDx=0;exitDy=0;entryX=0;entryY=0.5;entryDx=0;entryDy=0;" parent="1" source="dUvJ7xnpU8N0W4q3UFqf-159" target="dUvJ7xnpU8N0W4q3UFqf-81" edge="1">
          <mxGeometry relative="1" as="geometry" />
        </mxCell>
        <mxCell id="dUvJ7xnpU8N0W4q3UFqf-159" value="Seleccionar" style="rhombus;whiteSpace=wrap;html=1;" parent="1" vertex="1">
          <mxGeometry x="-625" y="830" width="80" height="80" as="geometry" />
        </mxCell>
        <mxCell id="dUvJ7xnpU8N0W4q3UFqf-164" style="edgeStyle=orthogonalEdgeStyle;rounded=0;orthogonalLoop=1;jettySize=auto;html=1;exitX=0;exitY=0.5;exitDx=0;exitDy=0;entryX=1;entryY=0.5;entryDx=0;entryDy=0;" parent="1" source="dUvJ7xnpU8N0W4q3UFqf-160" target="dUvJ7xnpU8N0W4q3UFqf-81" edge="1">
          <mxGeometry relative="1" as="geometry" />
        </mxCell>
        <mxCell id="dUvJ7xnpU8N0W4q3UFqf-160" value="Seleccionar" style="rhombus;whiteSpace=wrap;html=1;" parent="1" vertex="1">
          <mxGeometry x="-130" y="830" width="80" height="80" as="geometry" />
        </mxCell>
        <mxCell id="dUvJ7xnpU8N0W4q3UFqf-167" value="ClienteID" style="ellipse;whiteSpace=wrap;html=1;" parent="1" vertex="1">
          <mxGeometry x="10" y="-60" width="120" height="80" as="geometry" />
        </mxCell>
        <mxCell id="dUvJ7xnpU8N0W4q3UFqf-168" style="edgeStyle=orthogonalEdgeStyle;rounded=0;orthogonalLoop=1;jettySize=auto;html=1;exitX=0.5;exitY=1;exitDx=0;exitDy=0;entryX=0.372;entryY=0.029;entryDx=0;entryDy=0;entryPerimeter=0;" parent="1" source="dUvJ7xnpU8N0W4q3UFqf-167" target="dUvJ7xnpU8N0W4q3UFqf-139" edge="1">
          <mxGeometry relative="1" as="geometry" />
        </mxCell>
        <mxCell id="dUvJ7xnpU8N0W4q3UFqf-175" value="Inventario" style="rounded=0;whiteSpace=wrap;html=1;fillColor=#ffe6cc;strokeColor=#d79b00;" parent="1" vertex="1">
          <mxGeometry x="-455" y="160" width="120" height="60" as="geometry" />
        </mxCell>
        <mxCell id="dUvJ7xnpU8N0W4q3UFqf-187" style="edgeStyle=orthogonalEdgeStyle;rounded=0;orthogonalLoop=1;jettySize=auto;html=1;exitX=0.5;exitY=1;exitDx=0;exitDy=0;" parent="1" source="dUvJ7xnpU8N0W4q3UFqf-176" target="dUvJ7xnpU8N0W4q3UFqf-175" edge="1">
          <mxGeometry relative="1" as="geometry" />
        </mxCell>
        <mxCell id="dUvJ7xnpU8N0W4q3UFqf-176" value="Productos" style="ellipse;whiteSpace=wrap;html=1;" parent="1" vertex="1">
          <mxGeometry x="-590" y="40" width="120" height="80" as="geometry" />
        </mxCell>
        <mxCell id="dUvJ7xnpU8N0W4q3UFqf-188" style="edgeStyle=orthogonalEdgeStyle;rounded=0;orthogonalLoop=1;jettySize=auto;html=1;exitX=0;exitY=0.5;exitDx=0;exitDy=0;entryX=0.75;entryY=0;entryDx=0;entryDy=0;" parent="1" source="dUvJ7xnpU8N0W4q3UFqf-179" target="dUvJ7xnpU8N0W4q3UFqf-175" edge="1">
          <mxGeometry relative="1" as="geometry" />
        </mxCell>
        <mxCell id="dUvJ7xnpU8N0W4q3UFqf-179" value="Cantidad" style="ellipse;whiteSpace=wrap;html=1;" parent="1" vertex="1">
          <mxGeometry x="-350" y="40" width="120" height="80" as="geometry" />
        </mxCell>
        <mxCell id="dUvJ7xnpU8N0W4q3UFqf-185" style="edgeStyle=orthogonalEdgeStyle;rounded=0;orthogonalLoop=1;jettySize=auto;html=1;exitX=0;exitY=0.5;exitDx=0;exitDy=0;entryX=1;entryY=0.75;entryDx=0;entryDy=0;" parent="1" source="dUvJ7xnpU8N0W4q3UFqf-180" target="dUvJ7xnpU8N0W4q3UFqf-175" edge="1">
          <mxGeometry relative="1" as="geometry" />
        </mxCell>
        <mxCell id="dUvJ7xnpU8N0W4q3UFqf-180" value="Precio_Unidad" style="ellipse;whiteSpace=wrap;html=1;" parent="1" vertex="1">
          <mxGeometry x="-260" y="140" width="120" height="80" as="geometry" />
        </mxCell>
        <mxCell id="dUvJ7xnpU8N0W4q3UFqf-186" style="edgeStyle=orthogonalEdgeStyle;rounded=0;orthogonalLoop=1;jettySize=auto;html=1;exitX=1;exitY=0.5;exitDx=0;exitDy=0;" parent="1" source="dUvJ7xnpU8N0W4q3UFqf-181" target="dUvJ7xnpU8N0W4q3UFqf-175" edge="1">
          <mxGeometry relative="1" as="geometry" />
        </mxCell>
        <mxCell id="dUvJ7xnpU8N0W4q3UFqf-181" value="InventarioID" style="ellipse;whiteSpace=wrap;html=1;" parent="1" vertex="1">
          <mxGeometry x="-640" y="190" width="120" height="80" as="geometry" />
        </mxCell>
        <mxCell id="sls0JJjholh__sMR9oss-11" style="edgeStyle=orthogonalEdgeStyle;rounded=0;orthogonalLoop=1;jettySize=auto;html=1;exitX=0.5;exitY=0;exitDx=0;exitDy=0;entryX=0.5;entryY=1;entryDx=0;entryDy=0;" edge="1" parent="1" source="dUvJ7xnpU8N0W4q3UFqf-182" target="dUvJ7xnpU8N0W4q3UFqf-175">
          <mxGeometry relative="1" as="geometry" />
        </mxCell>
        <mxCell id="dUvJ7xnpU8N0W4q3UFqf-182" value="Actualizar" style="rhombus;whiteSpace=wrap;html=1;" parent="1" vertex="1">
          <mxGeometry x="-375" y="280" width="80" height="80" as="geometry" />
        </mxCell>
        <mxCell id="sls0JJjholh__sMR9oss-2" style="edgeStyle=orthogonalEdgeStyle;rounded=0;orthogonalLoop=1;jettySize=auto;html=1;exitX=0;exitY=0.5;exitDx=0;exitDy=0;entryX=1;entryY=0.5;entryDx=0;entryDy=0;" edge="1" parent="1" source="sls0JJjholh__sMR9oss-1" target="dUvJ7xnpU8N0W4q3UFqf-91">
          <mxGeometry relative="1" as="geometry" />
        </mxCell>
        <mxCell id="sls0JJjholh__sMR9oss-1" value="Nombre_Helado" style="ellipse;whiteSpace=wrap;html=1;" vertex="1" parent="1">
          <mxGeometry x="310" y="830" width="120" height="80" as="geometry" />
        </mxCell>
        <mxCell id="sls0JJjholh__sMR9oss-7" style="edgeStyle=orthogonalEdgeStyle;rounded=0;orthogonalLoop=1;jettySize=auto;html=1;exitX=0.5;exitY=0;exitDx=0;exitDy=0;entryX=0.5;entryY=1;entryDx=0;entryDy=0;" edge="1" parent="1" source="sls0JJjholh__sMR9oss-3" target="dUvJ7xnpU8N0W4q3UFqf-105">
          <mxGeometry relative="1" as="geometry" />
        </mxCell>
        <mxCell id="sls0JJjholh__sMR9oss-3" value="Nombre_Batido" style="ellipse;whiteSpace=wrap;html=1;" vertex="1" parent="1">
          <mxGeometry x="-940" y="950" width="120" height="80" as="geometry" />
        </mxCell>
        <mxCell id="sls0JJjholh__sMR9oss-35" style="edgeStyle=orthogonalEdgeStyle;rounded=0;orthogonalLoop=1;jettySize=auto;html=1;exitX=1;exitY=0.5;exitDx=0;exitDy=0;entryX=0;entryY=0.5;entryDx=0;entryDy=0;" edge="1" parent="1" source="sls0JJjholh__sMR9oss-8" target="sls0JJjholh__sMR9oss-34">
          <mxGeometry relative="1" as="geometry" />
        </mxCell>
        <mxCell id="sls0JJjholh__sMR9oss-8" value="Descuento" style="rounded=0;whiteSpace=wrap;html=1;fillColor=#ffe6cc;strokeColor=#d79b00;" vertex="1" parent="1">
          <mxGeometry x="-900" y="450" width="120" height="60" as="geometry" />
        </mxCell>
        <mxCell id="sls0JJjholh__sMR9oss-20" style="edgeStyle=orthogonalEdgeStyle;rounded=0;orthogonalLoop=1;jettySize=auto;html=1;exitX=1;exitY=0.5;exitDx=0;exitDy=0;entryX=0.25;entryY=1;entryDx=0;entryDy=0;" edge="1" parent="1" source="sls0JJjholh__sMR9oss-16" target="dUvJ7xnpU8N0W4q3UFqf-81">
          <mxGeometry relative="1" as="geometry" />
        </mxCell>
        <mxCell id="sls0JJjholh__sMR9oss-16" value="BatidoID" style="ellipse;whiteSpace=wrap;html=1;" vertex="1" parent="1">
          <mxGeometry x="-520" y="900" width="120" height="80" as="geometry" />
        </mxCell>
        <mxCell id="sls0JJjholh__sMR9oss-22" style="edgeStyle=orthogonalEdgeStyle;rounded=0;orthogonalLoop=1;jettySize=auto;html=1;exitX=1;exitY=0.5;exitDx=0;exitDy=0;entryX=0.007;entryY=0.134;entryDx=0;entryDy=0;entryPerimeter=0;" edge="1" parent="1" source="sls0JJjholh__sMR9oss-17" target="dUvJ7xnpU8N0W4q3UFqf-81">
          <mxGeometry relative="1" as="geometry" />
        </mxCell>
        <mxCell id="sls0JJjholh__sMR9oss-17" value="PizzaID" style="ellipse;whiteSpace=wrap;html=1;" vertex="1" parent="1">
          <mxGeometry x="-530" y="780" width="120" height="80" as="geometry" />
        </mxCell>
        <mxCell id="sls0JJjholh__sMR9oss-23" style="edgeStyle=orthogonalEdgeStyle;rounded=0;orthogonalLoop=1;jettySize=auto;html=1;exitX=0;exitY=0;exitDx=0;exitDy=0;entryX=0.833;entryY=1;entryDx=0;entryDy=0;entryPerimeter=0;" edge="1" parent="1" source="sls0JJjholh__sMR9oss-18" target="dUvJ7xnpU8N0W4q3UFqf-81">
          <mxGeometry relative="1" as="geometry" />
        </mxCell>
        <mxCell id="sls0JJjholh__sMR9oss-18" value="HeladoID" style="ellipse;whiteSpace=wrap;html=1;" vertex="1" parent="1">
          <mxGeometry x="-220" y="890" width="120" height="80" as="geometry" />
        </mxCell>
        <mxCell id="sls0JJjholh__sMR9oss-25" style="edgeStyle=orthogonalEdgeStyle;rounded=0;orthogonalLoop=1;jettySize=auto;html=1;exitX=0.5;exitY=1;exitDx=0;exitDy=0;" edge="1" parent="1" source="sls0JJjholh__sMR9oss-24" target="sls0JJjholh__sMR9oss-8">
          <mxGeometry relative="1" as="geometry" />
        </mxCell>
        <mxCell id="sls0JJjholh__sMR9oss-24" value="VentaID" style="ellipse;whiteSpace=wrap;html=1;" vertex="1" parent="1">
          <mxGeometry x="-900" y="330" width="120" height="80" as="geometry" />
        </mxCell>
        <mxCell id="sls0JJjholh__sMR9oss-29" style="edgeStyle=orthogonalEdgeStyle;rounded=0;orthogonalLoop=1;jettySize=auto;html=1;exitX=1;exitY=0.5;exitDx=0;exitDy=0;" edge="1" parent="1" source="sls0JJjholh__sMR9oss-26" target="sls0JJjholh__sMR9oss-8">
          <mxGeometry relative="1" as="geometry" />
        </mxCell>
        <mxCell id="sls0JJjholh__sMR9oss-26" value="Descuento_Batido" style="ellipse;whiteSpace=wrap;html=1;" vertex="1" parent="1">
          <mxGeometry x="-1080" y="430" width="120" height="80" as="geometry" />
        </mxCell>
        <mxCell id="sls0JJjholh__sMR9oss-33" style="edgeStyle=orthogonalEdgeStyle;rounded=0;orthogonalLoop=1;jettySize=auto;html=1;exitX=0;exitY=0.5;exitDx=0;exitDy=0;entryX=1;entryY=0.25;entryDx=0;entryDy=0;" edge="1" parent="1" source="sls0JJjholh__sMR9oss-27" target="sls0JJjholh__sMR9oss-8">
          <mxGeometry relative="1" as="geometry" />
        </mxCell>
        <mxCell id="sls0JJjholh__sMR9oss-27" value="Descuento_Pizza" style="ellipse;whiteSpace=wrap;html=1;" vertex="1" parent="1">
          <mxGeometry x="-740" y="360" width="120" height="80" as="geometry" />
        </mxCell>
        <mxCell id="sls0JJjholh__sMR9oss-31" style="edgeStyle=orthogonalEdgeStyle;rounded=0;orthogonalLoop=1;jettySize=auto;html=1;exitX=0.5;exitY=0;exitDx=0;exitDy=0;entryX=0.5;entryY=1;entryDx=0;entryDy=0;" edge="1" parent="1" source="sls0JJjholh__sMR9oss-28" target="sls0JJjholh__sMR9oss-8">
          <mxGeometry relative="1" as="geometry" />
        </mxCell>
        <mxCell id="sls0JJjholh__sMR9oss-28" value="Descuento_Helado" style="ellipse;whiteSpace=wrap;html=1;" vertex="1" parent="1">
          <mxGeometry x="-930" y="550" width="120" height="80" as="geometry" />
        </mxCell>
        <mxCell id="sls0JJjholh__sMR9oss-36" style="edgeStyle=orthogonalEdgeStyle;rounded=0;orthogonalLoop=1;jettySize=auto;html=1;exitX=1;exitY=0.5;exitDx=0;exitDy=0;entryX=0;entryY=0.5;entryDx=0;entryDy=0;" edge="1" parent="1" source="sls0JJjholh__sMR9oss-34" target="dUvJ7xnpU8N0W4q3UFqf-117">
          <mxGeometry relative="1" as="geometry" />
        </mxCell>
        <mxCell id="sls0JJjholh__sMR9oss-34" value="Tener" style="rhombus;whiteSpace=wrap;html=1;" vertex="1" parent="1">
          <mxGeometry x="-600" y="450" width="80" height="80" as="geometry" />
        </mxCell>
      </root>
    </mxGraphModel>
  </diagram>
</mxfile>
